<mxfile host="app.diagrams.net" agent="Mozilla/5.0 (Windows NT 10.0; Win64; x64) AppleWebKit/537.36 (KHTML, like Gecko) Chrome/132.0.0.0 Safari/537.36" version="26.0.10" pages="2">
  <diagram id="AyrFBgKuR5dpvbFY09R8" name="lezione3esercizio18">
    <mxGraphModel dx="1466" dy="2283" grid="1" gridSize="10" guides="1" tooltips="1" connect="1" arrows="1" fold="1" page="1" pageScale="1" pageWidth="827" pageHeight="1169" math="0" shadow="0">
      <root>
        <mxCell id="0" />
        <mxCell id="1" parent="0" />
        <mxCell id="i8MPXvGDXQZ_oZek78h0-4" value="" style="edgeStyle=orthogonalEdgeStyle;rounded=0;orthogonalLoop=1;jettySize=auto;html=1;" edge="1" parent="1" source="i8MPXvGDXQZ_oZek78h0-2" target="i8MPXvGDXQZ_oZek78h0-3">
          <mxGeometry relative="1" as="geometry" />
        </mxCell>
        <mxCell id="i8MPXvGDXQZ_oZek78h0-2" value="start" style="ellipse;whiteSpace=wrap;html=1;aspect=fixed;" vertex="1" parent="1">
          <mxGeometry x="360" y="-30" width="80" height="80" as="geometry" />
        </mxCell>
        <mxCell id="i8MPXvGDXQZ_oZek78h0-6" value="" style="edgeStyle=orthogonalEdgeStyle;rounded=0;orthogonalLoop=1;jettySize=auto;html=1;" edge="1" parent="1" source="i8MPXvGDXQZ_oZek78h0-3" target="i8MPXvGDXQZ_oZek78h0-5">
          <mxGeometry relative="1" as="geometry" />
        </mxCell>
        <mxCell id="i8MPXvGDXQZ_oZek78h0-3" value="read n" style="shape=parallelogram;perimeter=parallelogramPerimeter;whiteSpace=wrap;html=1;fixedSize=1;" vertex="1" parent="1">
          <mxGeometry x="340" y="80" width="120" height="60" as="geometry" />
        </mxCell>
        <mxCell id="i8MPXvGDXQZ_oZek78h0-8" value="" style="edgeStyle=orthogonalEdgeStyle;rounded=0;orthogonalLoop=1;jettySize=auto;html=1;" edge="1" parent="1" source="i8MPXvGDXQZ_oZek78h0-5" target="i8MPXvGDXQZ_oZek78h0-7">
          <mxGeometry relative="1" as="geometry" />
        </mxCell>
        <mxCell id="i8MPXvGDXQZ_oZek78h0-5" value="cont = 1,&lt;div&gt;sum = 0,&lt;/div&gt;&lt;div&gt;sum1 = 0,&lt;/div&gt;&lt;div&gt;sum2 = 0,&lt;/div&gt;&lt;div&gt;media = 1&lt;/div&gt;" style="whiteSpace=wrap;html=1;" vertex="1" parent="1">
          <mxGeometry x="340" y="170" width="120" height="90" as="geometry" />
        </mxCell>
        <mxCell id="i8MPXvGDXQZ_oZek78h0-10" value="" style="edgeStyle=orthogonalEdgeStyle;rounded=0;orthogonalLoop=1;jettySize=auto;html=1;" edge="1" parent="1" source="i8MPXvGDXQZ_oZek78h0-7" target="i8MPXvGDXQZ_oZek78h0-9">
          <mxGeometry relative="1" as="geometry" />
        </mxCell>
        <mxCell id="i8MPXvGDXQZ_oZek78h0-39" value="true" style="edgeLabel;html=1;align=center;verticalAlign=middle;resizable=0;points=[];" vertex="1" connectable="0" parent="i8MPXvGDXQZ_oZek78h0-10">
          <mxGeometry x="0.1757" y="1" relative="1" as="geometry">
            <mxPoint as="offset" />
          </mxGeometry>
        </mxCell>
        <mxCell id="3MwxtK2KrE-zB67e3j1V-28" style="edgeStyle=orthogonalEdgeStyle;rounded=0;orthogonalLoop=1;jettySize=auto;html=1;" edge="1" parent="1" source="i8MPXvGDXQZ_oZek78h0-7">
          <mxGeometry relative="1" as="geometry">
            <mxPoint x="960" y="370" as="targetPoint" />
          </mxGeometry>
        </mxCell>
        <mxCell id="i8MPXvGDXQZ_oZek78h0-7" value="cont &amp;lt;=&amp;nbsp; n" style="rhombus;whiteSpace=wrap;html=1;" vertex="1" parent="1">
          <mxGeometry x="360" y="280" width="80" height="80" as="geometry" />
        </mxCell>
        <mxCell id="i8MPXvGDXQZ_oZek78h0-33" value="" style="edgeStyle=orthogonalEdgeStyle;rounded=0;orthogonalLoop=1;jettySize=auto;html=1;" edge="1" parent="1" target="i8MPXvGDXQZ_oZek78h0-32">
          <mxGeometry relative="1" as="geometry">
            <mxPoint x="400" y="440" as="sourcePoint" />
          </mxGeometry>
        </mxCell>
        <mxCell id="i8MPXvGDXQZ_oZek78h0-9" value="write num" style="shape=parallelogram;perimeter=parallelogramPerimeter;whiteSpace=wrap;html=1;fixedSize=1;" vertex="1" parent="1">
          <mxGeometry x="340" y="390" width="120" height="60" as="geometry" />
        </mxCell>
        <mxCell id="i8MPXvGDXQZ_oZek78h0-14" value="" style="edgeStyle=orthogonalEdgeStyle;rounded=0;orthogonalLoop=1;jettySize=auto;html=1;" edge="1" parent="1" source="i8MPXvGDXQZ_oZek78h0-11" target="i8MPXvGDXQZ_oZek78h0-13">
          <mxGeometry relative="1" as="geometry" />
        </mxCell>
        <mxCell id="i8MPXvGDXQZ_oZek78h0-11" value="sum = sum + num" style="whiteSpace=wrap;html=1;" vertex="1" parent="1">
          <mxGeometry x="340" y="585" width="120" height="60" as="geometry" />
        </mxCell>
        <mxCell id="i8MPXvGDXQZ_oZek78h0-16" value="" style="edgeStyle=orthogonalEdgeStyle;rounded=0;orthogonalLoop=1;jettySize=auto;html=1;" edge="1" parent="1" source="i8MPXvGDXQZ_oZek78h0-13" target="i8MPXvGDXQZ_oZek78h0-15">
          <mxGeometry relative="1" as="geometry" />
        </mxCell>
        <mxCell id="i8MPXvGDXQZ_oZek78h0-13" value="media = num / cont" style="whiteSpace=wrap;html=1;" vertex="1" parent="1">
          <mxGeometry x="340" y="665" width="120" height="60" as="geometry" />
        </mxCell>
        <mxCell id="i8MPXvGDXQZ_oZek78h0-18" value="" style="edgeStyle=orthogonalEdgeStyle;rounded=0;orthogonalLoop=1;jettySize=auto;html=1;" edge="1" parent="1" source="i8MPXvGDXQZ_oZek78h0-15" target="i8MPXvGDXQZ_oZek78h0-17">
          <mxGeometry relative="1" as="geometry" />
        </mxCell>
        <mxCell id="i8MPXvGDXQZ_oZek78h0-42" value="true" style="edgeLabel;html=1;align=center;verticalAlign=middle;resizable=0;points=[];" vertex="1" connectable="0" parent="i8MPXvGDXQZ_oZek78h0-18">
          <mxGeometry x="-0.314" y="2" relative="1" as="geometry">
            <mxPoint as="offset" />
          </mxGeometry>
        </mxCell>
        <mxCell id="i8MPXvGDXQZ_oZek78h0-20" value="" style="edgeStyle=orthogonalEdgeStyle;rounded=0;orthogonalLoop=1;jettySize=auto;html=1;" edge="1" parent="1" source="i8MPXvGDXQZ_oZek78h0-15" target="i8MPXvGDXQZ_oZek78h0-19">
          <mxGeometry relative="1" as="geometry" />
        </mxCell>
        <mxCell id="i8MPXvGDXQZ_oZek78h0-43" value="false" style="edgeLabel;html=1;align=center;verticalAlign=middle;resizable=0;points=[];" vertex="1" connectable="0" parent="i8MPXvGDXQZ_oZek78h0-20">
          <mxGeometry x="-0.3462" y="1" relative="1" as="geometry">
            <mxPoint as="offset" />
          </mxGeometry>
        </mxCell>
        <mxCell id="i8MPXvGDXQZ_oZek78h0-15" value="num%2==0&amp;nbsp;&lt;div&gt;and&lt;/div&gt;&lt;div&gt;num &amp;gt; media&lt;/div&gt;" style="rhombus;whiteSpace=wrap;html=1;" vertex="1" parent="1">
          <mxGeometry x="360" y="755" width="80" height="80" as="geometry" />
        </mxCell>
        <mxCell id="i8MPXvGDXQZ_oZek78h0-27" value="" style="edgeStyle=orthogonalEdgeStyle;rounded=0;orthogonalLoop=1;jettySize=auto;html=1;" edge="1" parent="1" source="i8MPXvGDXQZ_oZek78h0-17" target="i8MPXvGDXQZ_oZek78h0-26">
          <mxGeometry relative="1" as="geometry">
            <Array as="points">
              <mxPoint x="580" y="1125" />
            </Array>
          </mxGeometry>
        </mxCell>
        <mxCell id="i8MPXvGDXQZ_oZek78h0-17" value="sum1 = sum1 + num" style="whiteSpace=wrap;html=1;" vertex="1" parent="1">
          <mxGeometry x="520" y="925" width="120" height="60" as="geometry" />
        </mxCell>
        <mxCell id="i8MPXvGDXQZ_oZek78h0-22" value="" style="edgeStyle=orthogonalEdgeStyle;rounded=0;orthogonalLoop=1;jettySize=auto;html=1;" edge="1" parent="1" source="i8MPXvGDXQZ_oZek78h0-19" target="i8MPXvGDXQZ_oZek78h0-21">
          <mxGeometry relative="1" as="geometry" />
        </mxCell>
        <mxCell id="i8MPXvGDXQZ_oZek78h0-44" value="true" style="edgeLabel;html=1;align=center;verticalAlign=middle;resizable=0;points=[];" vertex="1" connectable="0" parent="i8MPXvGDXQZ_oZek78h0-22">
          <mxGeometry x="-0.4082" relative="1" as="geometry">
            <mxPoint as="offset" />
          </mxGeometry>
        </mxCell>
        <mxCell id="i8MPXvGDXQZ_oZek78h0-24" value="" style="edgeStyle=orthogonalEdgeStyle;rounded=0;orthogonalLoop=1;jettySize=auto;html=1;" edge="1" parent="1" source="i8MPXvGDXQZ_oZek78h0-19" target="i8MPXvGDXQZ_oZek78h0-23">
          <mxGeometry relative="1" as="geometry">
            <Array as="points">
              <mxPoint x="120" y="885" />
              <mxPoint x="120" y="1055" />
            </Array>
          </mxGeometry>
        </mxCell>
        <mxCell id="i8MPXvGDXQZ_oZek78h0-64" value="false" style="edgeLabel;html=1;align=center;verticalAlign=middle;resizable=0;points=[];" vertex="1" connectable="0" parent="i8MPXvGDXQZ_oZek78h0-24">
          <mxGeometry x="-0.8168" y="2" relative="1" as="geometry">
            <mxPoint as="offset" />
          </mxGeometry>
        </mxCell>
        <mxCell id="i8MPXvGDXQZ_oZek78h0-19" value="num%2!=0&lt;div&gt;or&lt;/div&gt;&lt;div&gt;num &amp;lt; media&lt;/div&gt;" style="rhombus;whiteSpace=wrap;html=1;" vertex="1" parent="1">
          <mxGeometry x="210" y="845" width="80" height="80" as="geometry" />
        </mxCell>
        <mxCell id="i8MPXvGDXQZ_oZek78h0-21" value="sum2 = sum2 + num" style="whiteSpace=wrap;html=1;" vertex="1" parent="1">
          <mxGeometry x="330" y="945" width="120" height="60" as="geometry" />
        </mxCell>
        <mxCell id="i8MPXvGDXQZ_oZek78h0-23" value="" style="shape=waypoint;sketch=0;size=6;pointerEvents=1;points=[];fillColor=default;resizable=0;rotatable=0;perimeter=centerPerimeter;snapToPoint=1;" vertex="1" parent="1">
          <mxGeometry x="230" y="1045" width="20" height="20" as="geometry" />
        </mxCell>
        <mxCell id="i8MPXvGDXQZ_oZek78h0-25" style="edgeStyle=orthogonalEdgeStyle;rounded=0;orthogonalLoop=1;jettySize=auto;html=1;entryX=0.52;entryY=1.03;entryDx=0;entryDy=0;entryPerimeter=0;" edge="1" parent="1" source="i8MPXvGDXQZ_oZek78h0-21" target="i8MPXvGDXQZ_oZek78h0-23">
          <mxGeometry relative="1" as="geometry">
            <Array as="points">
              <mxPoint x="390" y="1055" />
            </Array>
          </mxGeometry>
        </mxCell>
        <mxCell id="i8MPXvGDXQZ_oZek78h0-47" value="" style="edgeStyle=orthogonalEdgeStyle;rounded=0;orthogonalLoop=1;jettySize=auto;html=1;" edge="1" parent="1" source="i8MPXvGDXQZ_oZek78h0-26">
          <mxGeometry relative="1" as="geometry">
            <mxPoint x="403.99999999999955" y="1150.0000000000005" as="targetPoint" />
          </mxGeometry>
        </mxCell>
        <mxCell id="i8MPXvGDXQZ_oZek78h0-26" value="" style="shape=waypoint;sketch=0;size=6;pointerEvents=1;points=[];fillColor=default;resizable=0;rotatable=0;perimeter=centerPerimeter;snapToPoint=1;" vertex="1" parent="1">
          <mxGeometry x="394" y="1114" width="20" height="20" as="geometry" />
        </mxCell>
        <mxCell id="i8MPXvGDXQZ_oZek78h0-28" style="edgeStyle=orthogonalEdgeStyle;rounded=0;orthogonalLoop=1;jettySize=auto;html=1;entryX=0.2;entryY=0.69;entryDx=0;entryDy=0;entryPerimeter=0;" edge="1" parent="1" source="i8MPXvGDXQZ_oZek78h0-23" target="i8MPXvGDXQZ_oZek78h0-26">
          <mxGeometry relative="1" as="geometry">
            <Array as="points">
              <mxPoint x="240" y="1125" />
            </Array>
          </mxGeometry>
        </mxCell>
        <mxCell id="i8MPXvGDXQZ_oZek78h0-31" style="edgeStyle=orthogonalEdgeStyle;rounded=0;orthogonalLoop=1;jettySize=auto;html=1;entryX=0;entryY=0.5;entryDx=0;entryDy=0;" edge="1" parent="1" source="i8MPXvGDXQZ_oZek78h0-29" target="i8MPXvGDXQZ_oZek78h0-7">
          <mxGeometry relative="1" as="geometry">
            <Array as="points">
              <mxPoint x="404" y="1240" />
              <mxPoint x="80" y="1240" />
              <mxPoint x="80" y="320" />
            </Array>
          </mxGeometry>
        </mxCell>
        <mxCell id="i8MPXvGDXQZ_oZek78h0-29" value="cont += 1" style="whiteSpace=wrap;html=1;" vertex="1" parent="1">
          <mxGeometry x="344" y="1150" width="120" height="60" as="geometry" />
        </mxCell>
        <mxCell id="i8MPXvGDXQZ_oZek78h0-37" style="edgeStyle=orthogonalEdgeStyle;rounded=0;orthogonalLoop=1;jettySize=auto;html=1;exitX=0.5;exitY=1;exitDx=0;exitDy=0;entryX=0.5;entryY=0;entryDx=0;entryDy=0;" edge="1" parent="1" source="i8MPXvGDXQZ_oZek78h0-32" target="i8MPXvGDXQZ_oZek78h0-11">
          <mxGeometry relative="1" as="geometry" />
        </mxCell>
        <mxCell id="i8MPXvGDXQZ_oZek78h0-41" value="true" style="edgeLabel;html=1;align=center;verticalAlign=middle;resizable=0;points=[];" vertex="1" connectable="0" parent="i8MPXvGDXQZ_oZek78h0-37">
          <mxGeometry x="-0.2765" y="-1" relative="1" as="geometry">
            <mxPoint as="offset" />
          </mxGeometry>
        </mxCell>
        <mxCell id="i8MPXvGDXQZ_oZek78h0-32" value="num%1==0" style="rhombus;whiteSpace=wrap;html=1;" vertex="1" parent="1">
          <mxGeometry x="360" y="480" width="80" height="80" as="geometry" />
        </mxCell>
        <mxCell id="i8MPXvGDXQZ_oZek78h0-38" style="edgeStyle=orthogonalEdgeStyle;rounded=0;orthogonalLoop=1;jettySize=auto;html=1;exitX=0;exitY=0.5;exitDx=0;exitDy=0;entryX=0.077;entryY=0.414;entryDx=0;entryDy=0;entryPerimeter=0;" edge="1" parent="1" source="i8MPXvGDXQZ_oZek78h0-32" target="i8MPXvGDXQZ_oZek78h0-9">
          <mxGeometry relative="1" as="geometry">
            <Array as="points">
              <mxPoint x="280" y="520" />
              <mxPoint x="280" y="415" />
            </Array>
          </mxGeometry>
        </mxCell>
        <mxCell id="i8MPXvGDXQZ_oZek78h0-40" value="false" style="edgeLabel;html=1;align=center;verticalAlign=middle;resizable=0;points=[];" vertex="1" connectable="0" parent="i8MPXvGDXQZ_oZek78h0-38">
          <mxGeometry x="-0.7464" y="-1" relative="1" as="geometry">
            <mxPoint as="offset" />
          </mxGeometry>
        </mxCell>
        <mxCell id="i8MPXvGDXQZ_oZek78h0-58" style="edgeStyle=orthogonalEdgeStyle;rounded=0;orthogonalLoop=1;jettySize=auto;html=1;exitX=0.5;exitY=1;exitDx=0;exitDy=0;" edge="1" parent="1">
          <mxGeometry relative="1" as="geometry">
            <mxPoint x="978.0000000000005" y="730" as="sourcePoint" />
            <mxPoint x="978.0000000000005" y="730" as="targetPoint" />
          </mxGeometry>
        </mxCell>
        <mxCell id="3MwxtK2KrE-zB67e3j1V-19" value="" style="edgeStyle=orthogonalEdgeStyle;rounded=0;orthogonalLoop=1;jettySize=auto;html=1;" edge="1" parent="1" target="3MwxtK2KrE-zB67e3j1V-23">
          <mxGeometry relative="1" as="geometry">
            <mxPoint x="1000" y="410" as="sourcePoint" />
          </mxGeometry>
        </mxCell>
        <mxCell id="3MwxtK2KrE-zB67e3j1V-20" value="true" style="edgeLabel;html=1;align=center;verticalAlign=middle;resizable=0;points=[];" vertex="1" connectable="0" parent="3MwxtK2KrE-zB67e3j1V-19">
          <mxGeometry x="-0.0982" relative="1" as="geometry">
            <mxPoint x="-45" as="offset" />
          </mxGeometry>
        </mxCell>
        <mxCell id="3MwxtK2KrE-zB67e3j1V-21" value="" style="edgeStyle=orthogonalEdgeStyle;rounded=0;orthogonalLoop=1;jettySize=auto;html=1;" edge="1" parent="1">
          <mxGeometry relative="1" as="geometry">
            <mxPoint x="920" y="410" as="sourcePoint" />
            <mxPoint x="796" y="490" as="targetPoint" />
          </mxGeometry>
        </mxCell>
        <mxCell id="3MwxtK2KrE-zB67e3j1V-22" value="false" style="edgeLabel;html=1;align=center;verticalAlign=middle;resizable=0;points=[];" vertex="1" connectable="0" parent="3MwxtK2KrE-zB67e3j1V-21">
          <mxGeometry x="-0.4612" relative="1" as="geometry">
            <mxPoint as="offset" />
          </mxGeometry>
        </mxCell>
        <mxCell id="3MwxtK2KrE-zB67e3j1V-23" value="write sum1 &quot;è maggiore&quot;" style="whiteSpace=wrap;html=1;sketch=0;pointerEvents=1;resizable=0;" vertex="1" parent="1">
          <mxGeometry x="1076" y="530" width="120" height="60" as="geometry" />
        </mxCell>
        <mxCell id="3MwxtK2KrE-zB67e3j1V-29" value="sum1 &amp;gt; sum 2" style="rhombus;whiteSpace=wrap;html=1;sketch=0;pointerEvents=1;resizable=0;" vertex="1" parent="1">
          <mxGeometry x="920" y="370" width="80" height="80" as="geometry" />
        </mxCell>
        <mxCell id="3MwxtK2KrE-zB67e3j1V-32" value="" style="edgeStyle=orthogonalEdgeStyle;rounded=0;orthogonalLoop=1;jettySize=auto;html=1;" edge="1" parent="1" source="3MwxtK2KrE-zB67e3j1V-30" target="3MwxtK2KrE-zB67e3j1V-31">
          <mxGeometry relative="1" as="geometry" />
        </mxCell>
        <mxCell id="3MwxtK2KrE-zB67e3j1V-41" value="true" style="edgeLabel;html=1;align=center;verticalAlign=middle;resizable=0;points=[];" vertex="1" connectable="0" parent="3MwxtK2KrE-zB67e3j1V-32">
          <mxGeometry x="-0.3977" y="-2" relative="1" as="geometry">
            <mxPoint as="offset" />
          </mxGeometry>
        </mxCell>
        <mxCell id="3MwxtK2KrE-zB67e3j1V-34" value="" style="edgeStyle=orthogonalEdgeStyle;rounded=0;orthogonalLoop=1;jettySize=auto;html=1;" edge="1" parent="1" source="3MwxtK2KrE-zB67e3j1V-30" target="3MwxtK2KrE-zB67e3j1V-33">
          <mxGeometry relative="1" as="geometry" />
        </mxCell>
        <mxCell id="3MwxtK2KrE-zB67e3j1V-42" value="false" style="edgeLabel;html=1;align=center;verticalAlign=middle;resizable=0;points=[];" vertex="1" connectable="0" parent="3MwxtK2KrE-zB67e3j1V-34">
          <mxGeometry x="-0.3856" y="-1" relative="1" as="geometry">
            <mxPoint as="offset" />
          </mxGeometry>
        </mxCell>
        <mxCell id="3MwxtK2KrE-zB67e3j1V-30" value="sum1 == sum2" style="rhombus;whiteSpace=wrap;html=1;" vertex="1" parent="1">
          <mxGeometry x="758" y="490" width="80" height="80" as="geometry" />
        </mxCell>
        <mxCell id="3MwxtK2KrE-zB67e3j1V-37" style="edgeStyle=orthogonalEdgeStyle;rounded=0;orthogonalLoop=1;jettySize=auto;html=1;entryX=0.816;entryY=0.519;entryDx=0;entryDy=0;entryPerimeter=0;" edge="1" parent="1">
          <mxGeometry relative="1" as="geometry">
            <mxPoint x="810" y="678.0000000000005" as="targetPoint" />
            <mxPoint x="959.0000000000005" y="650" as="sourcePoint" />
            <Array as="points">
              <mxPoint x="959" y="678" />
            </Array>
          </mxGeometry>
        </mxCell>
        <mxCell id="3MwxtK2KrE-zB67e3j1V-31" value="write &quot;le somme sono uguali&quot;" style="shape=parallelogram;perimeter=parallelogramPerimeter;whiteSpace=wrap;html=1;fixedSize=1;" vertex="1" parent="1">
          <mxGeometry x="900" y="584" width="120" height="60" as="geometry" />
        </mxCell>
        <mxCell id="3MwxtK2KrE-zB67e3j1V-33" value="write sum2 &quot;è maggiore&quot;" style="shape=parallelogram;perimeter=parallelogramPerimeter;whiteSpace=wrap;html=1;fixedSize=1;" vertex="1" parent="1">
          <mxGeometry x="600" y="584" width="120" height="60" as="geometry" />
        </mxCell>
        <mxCell id="3MwxtK2KrE-zB67e3j1V-48" style="edgeStyle=orthogonalEdgeStyle;rounded=0;orthogonalLoop=1;jettySize=auto;html=1;" edge="1" parent="1" source="3MwxtK2KrE-zB67e3j1V-35" target="3MwxtK2KrE-zB67e3j1V-47">
          <mxGeometry relative="1" as="geometry">
            <Array as="points">
              <mxPoint x="810" y="720" />
            </Array>
          </mxGeometry>
        </mxCell>
        <mxCell id="3MwxtK2KrE-zB67e3j1V-35" value="" style="shape=waypoint;sketch=0;size=6;pointerEvents=1;points=[];fillColor=default;resizable=0;rotatable=0;perimeter=centerPerimeter;snapToPoint=1;" vertex="1" parent="1">
          <mxGeometry x="800" y="668" width="20" height="20" as="geometry" />
        </mxCell>
        <mxCell id="3MwxtK2KrE-zB67e3j1V-43" value="end" style="ellipse;whiteSpace=wrap;html=1;" vertex="1" parent="1">
          <mxGeometry x="920" y="755" width="80" height="80" as="geometry" />
        </mxCell>
        <mxCell id="3MwxtK2KrE-zB67e3j1V-45" style="edgeStyle=orthogonalEdgeStyle;rounded=0;orthogonalLoop=1;jettySize=auto;html=1;entryX=0.758;entryY=0.731;entryDx=0;entryDy=0;entryPerimeter=0;" edge="1" parent="1" source="3MwxtK2KrE-zB67e3j1V-33" target="3MwxtK2KrE-zB67e3j1V-35">
          <mxGeometry relative="1" as="geometry">
            <Array as="points">
              <mxPoint x="660" y="678" />
            </Array>
          </mxGeometry>
        </mxCell>
        <mxCell id="3MwxtK2KrE-zB67e3j1V-50" value="" style="edgeStyle=orthogonalEdgeStyle;rounded=0;orthogonalLoop=1;jettySize=auto;html=1;" edge="1" parent="1" source="3MwxtK2KrE-zB67e3j1V-47" target="3MwxtK2KrE-zB67e3j1V-43">
          <mxGeometry relative="1" as="geometry" />
        </mxCell>
        <mxCell id="3MwxtK2KrE-zB67e3j1V-47" value="" style="shape=waypoint;sketch=0;size=6;pointerEvents=1;points=[];fillColor=none;resizable=0;rotatable=0;perimeter=centerPerimeter;snapToPoint=1;" vertex="1" parent="1">
          <mxGeometry x="950" y="710" width="20" height="20" as="geometry" />
        </mxCell>
        <mxCell id="3MwxtK2KrE-zB67e3j1V-49" style="edgeStyle=orthogonalEdgeStyle;rounded=0;orthogonalLoop=1;jettySize=auto;html=1;entryX=0.83;entryY=0.959;entryDx=0;entryDy=0;entryPerimeter=0;" edge="1" parent="1" source="3MwxtK2KrE-zB67e3j1V-23" target="3MwxtK2KrE-zB67e3j1V-47">
          <mxGeometry relative="1" as="geometry">
            <Array as="points">
              <mxPoint x="1136" y="720" />
            </Array>
          </mxGeometry>
        </mxCell>
      </root>
    </mxGraphModel>
  </diagram>
  <diagram name="lezione3esercizio19" id="16oaHbhYfAUNJFiqw8TP">
    <mxGraphModel dx="2117" dy="557" grid="1" gridSize="10" guides="1" tooltips="1" connect="1" arrows="1" fold="1" page="1" pageScale="1" pageWidth="827" pageHeight="1169" math="0" shadow="0">
      <root>
        <mxCell id="0" />
        <mxCell id="1" parent="0" />
        <mxCell id="loUv_t9oCYbhFRwzyhbo-3" value="" style="edgeStyle=orthogonalEdgeStyle;rounded=0;orthogonalLoop=1;jettySize=auto;html=1;" parent="1" source="loUv_t9oCYbhFRwzyhbo-1" target="loUv_t9oCYbhFRwzyhbo-2" edge="1">
          <mxGeometry relative="1" as="geometry" />
        </mxCell>
        <mxCell id="loUv_t9oCYbhFRwzyhbo-1" value="start" style="ellipse;whiteSpace=wrap;html=1;" parent="1" vertex="1">
          <mxGeometry x="400" y="40" width="80" height="80" as="geometry" />
        </mxCell>
        <mxCell id="loUv_t9oCYbhFRwzyhbo-5" value="" style="edgeStyle=orthogonalEdgeStyle;rounded=0;orthogonalLoop=1;jettySize=auto;html=1;" parent="1" source="loUv_t9oCYbhFRwzyhbo-2" edge="1">
          <mxGeometry relative="1" as="geometry">
            <mxPoint x="439.9999999999998" y="240.00000000000023" as="targetPoint" />
          </mxGeometry>
        </mxCell>
        <mxCell id="loUv_t9oCYbhFRwzyhbo-2" value="read n" style="shape=parallelogram;perimeter=parallelogramPerimeter;whiteSpace=wrap;html=1;fixedSize=1;" parent="1" vertex="1">
          <mxGeometry x="380" y="150" width="120" height="60" as="geometry" />
        </mxCell>
        <mxCell id="loUv_t9oCYbhFRwzyhbo-81" value="" style="edgeStyle=orthogonalEdgeStyle;rounded=0;orthogonalLoop=1;jettySize=auto;html=1;" parent="1" source="loUv_t9oCYbhFRwzyhbo-6" target="loUv_t9oCYbhFRwzyhbo-7" edge="1">
          <mxGeometry relative="1" as="geometry" />
        </mxCell>
        <mxCell id="loUv_t9oCYbhFRwzyhbo-6" value="cont = 1,&lt;div&gt;sum = 0,&lt;/div&gt;&lt;div&gt;prod = 1&lt;/div&gt;" style="whiteSpace=wrap;html=1;" parent="1" vertex="1">
          <mxGeometry x="380" y="240" width="120" height="60" as="geometry" />
        </mxCell>
        <mxCell id="loUv_t9oCYbhFRwzyhbo-107" value="" style="edgeStyle=orthogonalEdgeStyle;rounded=0;orthogonalLoop=1;jettySize=auto;html=1;" parent="1" source="loUv_t9oCYbhFRwzyhbo-7" target="loUv_t9oCYbhFRwzyhbo-106" edge="1">
          <mxGeometry relative="1" as="geometry" />
        </mxCell>
        <mxCell id="loUv_t9oCYbhFRwzyhbo-134" value="false" style="edgeLabel;html=1;align=center;verticalAlign=middle;resizable=0;points=[];" parent="loUv_t9oCYbhFRwzyhbo-107" vertex="1" connectable="0">
          <mxGeometry x="-0.5252" y="-1" relative="1" as="geometry">
            <mxPoint x="-67" y="-1" as="offset" />
          </mxGeometry>
        </mxCell>
        <mxCell id="loUv_t9oCYbhFRwzyhbo-7" value="cont &amp;lt;= n" style="rhombus;whiteSpace=wrap;html=1;" parent="1" vertex="1">
          <mxGeometry x="400" y="330" width="80" height="80" as="geometry" />
        </mxCell>
        <mxCell id="loUv_t9oCYbhFRwzyhbo-129" value="" style="edgeStyle=orthogonalEdgeStyle;rounded=0;orthogonalLoop=1;jettySize=auto;html=1;" parent="1" source="loUv_t9oCYbhFRwzyhbo-35" target="loUv_t9oCYbhFRwzyhbo-38" edge="1">
          <mxGeometry relative="1" as="geometry" />
        </mxCell>
        <mxCell id="loUv_t9oCYbhFRwzyhbo-35" value="read num" style="shape=parallelogram;perimeter=parallelogramPerimeter;whiteSpace=wrap;html=1;fixedSize=1;" parent="1" vertex="1">
          <mxGeometry x="190" y="540" width="120" height="60" as="geometry" />
        </mxCell>
        <mxCell id="loUv_t9oCYbhFRwzyhbo-40" value="" style="edgeStyle=orthogonalEdgeStyle;rounded=0;orthogonalLoop=1;jettySize=auto;html=1;" parent="1" source="loUv_t9oCYbhFRwzyhbo-38" target="loUv_t9oCYbhFRwzyhbo-39" edge="1">
          <mxGeometry relative="1" as="geometry" />
        </mxCell>
        <mxCell id="loUv_t9oCYbhFRwzyhbo-118" value="true" style="edgeLabel;html=1;align=center;verticalAlign=middle;resizable=0;points=[];" parent="loUv_t9oCYbhFRwzyhbo-40" vertex="1" connectable="0">
          <mxGeometry x="-0.0026" relative="1" as="geometry">
            <mxPoint as="offset" />
          </mxGeometry>
        </mxCell>
        <mxCell id="loUv_t9oCYbhFRwzyhbo-57" value="" style="edgeStyle=orthogonalEdgeStyle;rounded=0;orthogonalLoop=1;jettySize=auto;html=1;" parent="1" source="loUv_t9oCYbhFRwzyhbo-38" target="loUv_t9oCYbhFRwzyhbo-56" edge="1">
          <mxGeometry relative="1" as="geometry" />
        </mxCell>
        <mxCell id="loUv_t9oCYbhFRwzyhbo-124" value="false" style="edgeLabel;html=1;align=center;verticalAlign=middle;resizable=0;points=[];" parent="loUv_t9oCYbhFRwzyhbo-57" vertex="1" connectable="0">
          <mxGeometry x="-0.3747" y="-4" relative="1" as="geometry">
            <mxPoint x="1" as="offset" />
          </mxGeometry>
        </mxCell>
        <mxCell id="loUv_t9oCYbhFRwzyhbo-38" value="n%2==0" style="rhombus;whiteSpace=wrap;html=1;" parent="1" vertex="1">
          <mxGeometry x="210" y="630" width="80" height="80" as="geometry" />
        </mxCell>
        <mxCell id="loUv_t9oCYbhFRwzyhbo-42" value="" style="edgeStyle=orthogonalEdgeStyle;rounded=0;orthogonalLoop=1;jettySize=auto;html=1;" parent="1" source="loUv_t9oCYbhFRwzyhbo-39" target="loUv_t9oCYbhFRwzyhbo-41" edge="1">
          <mxGeometry relative="1" as="geometry" />
        </mxCell>
        <mxCell id="loUv_t9oCYbhFRwzyhbo-39" value="" style="shape=waypoint;sketch=0;size=6;pointerEvents=1;points=[];fillColor=default;resizable=0;rotatable=0;perimeter=centerPerimeter;snapToPoint=1;" parent="1" vertex="1">
          <mxGeometry x="400" y="660" width="20" height="20" as="geometry" />
        </mxCell>
        <mxCell id="loUv_t9oCYbhFRwzyhbo-44" value="" style="edgeStyle=orthogonalEdgeStyle;rounded=0;orthogonalLoop=1;jettySize=auto;html=1;" parent="1" source="loUv_t9oCYbhFRwzyhbo-41" target="loUv_t9oCYbhFRwzyhbo-43" edge="1">
          <mxGeometry relative="1" as="geometry" />
        </mxCell>
        <mxCell id="loUv_t9oCYbhFRwzyhbo-120" value="true" style="edgeLabel;html=1;align=center;verticalAlign=middle;resizable=0;points=[];" parent="loUv_t9oCYbhFRwzyhbo-44" vertex="1" connectable="0">
          <mxGeometry x="-0.0538" y="-2" relative="1" as="geometry">
            <mxPoint as="offset" />
          </mxGeometry>
        </mxCell>
        <mxCell id="loUv_t9oCYbhFRwzyhbo-48" value="" style="edgeStyle=orthogonalEdgeStyle;rounded=0;orthogonalLoop=1;jettySize=auto;html=1;" parent="1" source="loUv_t9oCYbhFRwzyhbo-41" target="loUv_t9oCYbhFRwzyhbo-47" edge="1">
          <mxGeometry relative="1" as="geometry" />
        </mxCell>
        <mxCell id="loUv_t9oCYbhFRwzyhbo-41" value="num%4==0" style="rhombus;whiteSpace=wrap;html=1;sketch=0;pointerEvents=1;resizable=0;" parent="1" vertex="1">
          <mxGeometry x="370" y="710" width="80" height="80" as="geometry" />
        </mxCell>
        <mxCell id="loUv_t9oCYbhFRwzyhbo-46" value="" style="edgeStyle=orthogonalEdgeStyle;rounded=0;orthogonalLoop=1;jettySize=auto;html=1;" parent="1" source="loUv_t9oCYbhFRwzyhbo-43" target="loUv_t9oCYbhFRwzyhbo-45" edge="1">
          <mxGeometry relative="1" as="geometry" />
        </mxCell>
        <mxCell id="loUv_t9oCYbhFRwzyhbo-43" value="" style="shape=waypoint;sketch=0;size=6;pointerEvents=1;points=[];fillColor=default;resizable=0;rotatable=0;perimeter=centerPerimeter;snapToPoint=1;" parent="1" vertex="1">
          <mxGeometry x="560" y="740" width="20" height="20" as="geometry" />
        </mxCell>
        <mxCell id="loUv_t9oCYbhFRwzyhbo-54" value="" style="edgeStyle=orthogonalEdgeStyle;rounded=0;orthogonalLoop=1;jettySize=auto;html=1;" parent="1" source="loUv_t9oCYbhFRwzyhbo-45" target="loUv_t9oCYbhFRwzyhbo-53" edge="1">
          <mxGeometry relative="1" as="geometry" />
        </mxCell>
        <mxCell id="loUv_t9oCYbhFRwzyhbo-45" value="sum = sum + num" style="whiteSpace=wrap;html=1;sketch=0;pointerEvents=1;resizable=0;" parent="1" vertex="1">
          <mxGeometry x="510" y="790" width="120" height="60" as="geometry" />
        </mxCell>
        <mxCell id="loUv_t9oCYbhFRwzyhbo-50" value="" style="edgeStyle=orthogonalEdgeStyle;rounded=0;orthogonalLoop=1;jettySize=auto;html=1;" parent="1" source="loUv_t9oCYbhFRwzyhbo-47" target="loUv_t9oCYbhFRwzyhbo-49" edge="1">
          <mxGeometry relative="1" as="geometry" />
        </mxCell>
        <mxCell id="loUv_t9oCYbhFRwzyhbo-47" value="" style="shape=waypoint;sketch=0;size=6;pointerEvents=1;points=[];fillColor=default;resizable=0;rotatable=0;perimeter=centerPerimeter;snapToPoint=1;" parent="1" vertex="1">
          <mxGeometry x="320" y="740" width="20" height="20" as="geometry" />
        </mxCell>
        <mxCell id="loUv_t9oCYbhFRwzyhbo-52" value="" style="edgeStyle=orthogonalEdgeStyle;rounded=0;orthogonalLoop=1;jettySize=auto;html=1;" parent="1" source="loUv_t9oCYbhFRwzyhbo-49" target="loUv_t9oCYbhFRwzyhbo-51" edge="1">
          <mxGeometry relative="1" as="geometry" />
        </mxCell>
        <mxCell id="loUv_t9oCYbhFRwzyhbo-49" value="" style="shape=waypoint;sketch=0;size=6;pointerEvents=1;points=[];fillColor=default;resizable=0;rotatable=0;perimeter=centerPerimeter;snapToPoint=1;" parent="1" vertex="1">
          <mxGeometry x="320" y="880" width="20" height="20" as="geometry" />
        </mxCell>
        <mxCell id="loUv_t9oCYbhFRwzyhbo-89" value="" style="edgeStyle=orthogonalEdgeStyle;rounded=0;orthogonalLoop=1;jettySize=auto;html=1;" parent="1" source="loUv_t9oCYbhFRwzyhbo-51" target="loUv_t9oCYbhFRwzyhbo-88" edge="1">
          <mxGeometry relative="1" as="geometry" />
        </mxCell>
        <mxCell id="loUv_t9oCYbhFRwzyhbo-51" value="" style="shape=waypoint;sketch=0;size=6;pointerEvents=1;points=[];fillColor=default;resizable=0;rotatable=0;perimeter=centerPerimeter;snapToPoint=1;" parent="1" vertex="1">
          <mxGeometry x="490" y="880" width="20" height="20" as="geometry" />
        </mxCell>
        <mxCell id="loUv_t9oCYbhFRwzyhbo-53" value="" style="shape=waypoint;sketch=0;size=6;pointerEvents=1;points=[];fillColor=default;resizable=0;rotatable=0;perimeter=centerPerimeter;snapToPoint=1;" parent="1" vertex="1">
          <mxGeometry x="560" y="880" width="20" height="20" as="geometry" />
        </mxCell>
        <mxCell id="loUv_t9oCYbhFRwzyhbo-55" style="edgeStyle=orthogonalEdgeStyle;rounded=0;orthogonalLoop=1;jettySize=auto;html=1;entryX=0.49;entryY=0.87;entryDx=0;entryDy=0;entryPerimeter=0;" parent="1" source="loUv_t9oCYbhFRwzyhbo-53" target="loUv_t9oCYbhFRwzyhbo-51" edge="1">
          <mxGeometry relative="1" as="geometry" />
        </mxCell>
        <mxCell id="loUv_t9oCYbhFRwzyhbo-59" value="" style="edgeStyle=orthogonalEdgeStyle;rounded=0;orthogonalLoop=1;jettySize=auto;html=1;entryX=0.5;entryY=0;entryDx=0;entryDy=0;" parent="1" source="loUv_t9oCYbhFRwzyhbo-56" target="loUv_t9oCYbhFRwzyhbo-60" edge="1">
          <mxGeometry relative="1" as="geometry">
            <mxPoint x="240" y="820" as="targetPoint" />
          </mxGeometry>
        </mxCell>
        <mxCell id="loUv_t9oCYbhFRwzyhbo-117" value="true" style="edgeLabel;html=1;align=center;verticalAlign=middle;resizable=0;points=[];" parent="loUv_t9oCYbhFRwzyhbo-59" vertex="1" connectable="0">
          <mxGeometry x="-0.6574" relative="1" as="geometry">
            <mxPoint as="offset" />
          </mxGeometry>
        </mxCell>
        <mxCell id="loUv_t9oCYbhFRwzyhbo-67" value="" style="edgeStyle=orthogonalEdgeStyle;rounded=0;orthogonalLoop=1;jettySize=auto;html=1;" parent="1" source="loUv_t9oCYbhFRwzyhbo-56" edge="1">
          <mxGeometry relative="1" as="geometry">
            <mxPoint x="100" y="1120" as="targetPoint" />
            <Array as="points">
              <mxPoint x="-80" y="760" />
              <mxPoint x="-80" y="1120" />
            </Array>
          </mxGeometry>
        </mxCell>
        <mxCell id="loUv_t9oCYbhFRwzyhbo-125" value="false" style="edgeLabel;html=1;align=center;verticalAlign=middle;resizable=0;points=[];" parent="loUv_t9oCYbhFRwzyhbo-67" vertex="1" connectable="0">
          <mxGeometry x="-0.8505" relative="1" as="geometry">
            <mxPoint x="1" as="offset" />
          </mxGeometry>
        </mxCell>
        <mxCell id="loUv_t9oCYbhFRwzyhbo-56" value="n%2!=0" style="rhombus;whiteSpace=wrap;html=1;" parent="1" vertex="1">
          <mxGeometry x="50" y="720" width="80" height="80" as="geometry" />
        </mxCell>
        <mxCell id="loUv_t9oCYbhFRwzyhbo-62" value="" style="edgeStyle=orthogonalEdgeStyle;rounded=0;orthogonalLoop=1;jettySize=auto;html=1;" parent="1" source="loUv_t9oCYbhFRwzyhbo-60" target="loUv_t9oCYbhFRwzyhbo-61" edge="1">
          <mxGeometry relative="1" as="geometry" />
        </mxCell>
        <mxCell id="loUv_t9oCYbhFRwzyhbo-116" value="true" style="edgeLabel;html=1;align=center;verticalAlign=middle;resizable=0;points=[];" parent="loUv_t9oCYbhFRwzyhbo-62" vertex="1" connectable="0">
          <mxGeometry x="-0.3416" y="-2" relative="1" as="geometry">
            <mxPoint x="1" as="offset" />
          </mxGeometry>
        </mxCell>
        <mxCell id="loUv_t9oCYbhFRwzyhbo-64" value="" style="edgeStyle=orthogonalEdgeStyle;rounded=0;orthogonalLoop=1;jettySize=auto;html=1;" parent="1" source="loUv_t9oCYbhFRwzyhbo-60" target="loUv_t9oCYbhFRwzyhbo-63" edge="1">
          <mxGeometry relative="1" as="geometry">
            <Array as="points">
              <mxPoint x="120" y="950" />
              <mxPoint x="120" y="1080" />
            </Array>
          </mxGeometry>
        </mxCell>
        <mxCell id="loUv_t9oCYbhFRwzyhbo-126" value="false" style="edgeLabel;html=1;align=center;verticalAlign=middle;resizable=0;points=[];" parent="loUv_t9oCYbhFRwzyhbo-64" vertex="1" connectable="0">
          <mxGeometry x="-0.7572" y="-3" relative="1" as="geometry">
            <mxPoint as="offset" />
          </mxGeometry>
        </mxCell>
        <mxCell id="loUv_t9oCYbhFRwzyhbo-60" value="num%2!=0" style="rhombus;whiteSpace=wrap;html=1;" parent="1" vertex="1">
          <mxGeometry x="200" y="910" width="80" height="80" as="geometry" />
        </mxCell>
        <mxCell id="loUv_t9oCYbhFRwzyhbo-61" value="prod = prod * num" style="whiteSpace=wrap;html=1;" parent="1" vertex="1">
          <mxGeometry x="340" y="991" width="120" height="60" as="geometry" />
        </mxCell>
        <mxCell id="loUv_t9oCYbhFRwzyhbo-63" value="" style="shape=waypoint;sketch=0;size=6;pointerEvents=1;points=[];fillColor=default;resizable=0;rotatable=0;perimeter=centerPerimeter;snapToPoint=1;" parent="1" vertex="1">
          <mxGeometry x="230" y="1070" width="20" height="20" as="geometry" />
        </mxCell>
        <mxCell id="loUv_t9oCYbhFRwzyhbo-65" style="edgeStyle=orthogonalEdgeStyle;rounded=0;orthogonalLoop=1;jettySize=auto;html=1;entryX=0.87;entryY=0.53;entryDx=0;entryDy=0;entryPerimeter=0;" parent="1" source="loUv_t9oCYbhFRwzyhbo-61" target="loUv_t9oCYbhFRwzyhbo-63" edge="1">
          <mxGeometry relative="1" as="geometry">
            <Array as="points">
              <mxPoint x="400" y="1080" />
            </Array>
          </mxGeometry>
        </mxCell>
        <mxCell id="loUv_t9oCYbhFRwzyhbo-74" value="" style="edgeStyle=orthogonalEdgeStyle;rounded=0;orthogonalLoop=1;jettySize=auto;html=1;" parent="1" source="loUv_t9oCYbhFRwzyhbo-76" target="loUv_t9oCYbhFRwzyhbo-78" edge="1">
          <mxGeometry relative="1" as="geometry" />
        </mxCell>
        <mxCell id="loUv_t9oCYbhFRwzyhbo-119" value="true" style="edgeLabel;html=1;align=center;verticalAlign=middle;resizable=0;points=[];" parent="loUv_t9oCYbhFRwzyhbo-74" vertex="1" connectable="0">
          <mxGeometry x="-0.2355" relative="1" as="geometry">
            <mxPoint x="1" as="offset" />
          </mxGeometry>
        </mxCell>
        <mxCell id="loUv_t9oCYbhFRwzyhbo-131" value="" style="edgeStyle=orthogonalEdgeStyle;rounded=0;orthogonalLoop=1;jettySize=auto;html=1;" parent="1" source="loUv_t9oCYbhFRwzyhbo-76" target="loUv_t9oCYbhFRwzyhbo-130" edge="1">
          <mxGeometry relative="1" as="geometry" />
        </mxCell>
        <mxCell id="loUv_t9oCYbhFRwzyhbo-133" value="false" style="edgeLabel;html=1;align=center;verticalAlign=middle;resizable=0;points=[];" parent="loUv_t9oCYbhFRwzyhbo-131" vertex="1" connectable="0">
          <mxGeometry x="-0.0407" y="-1" relative="1" as="geometry">
            <mxPoint as="offset" />
          </mxGeometry>
        </mxCell>
        <mxCell id="loUv_t9oCYbhFRwzyhbo-76" value="n&amp;lt;0" style="rhombus;whiteSpace=wrap;html=1;" parent="1" vertex="1">
          <mxGeometry x="400" y="450" width="80" height="80" as="geometry" />
        </mxCell>
        <mxCell id="loUv_t9oCYbhFRwzyhbo-77" value="" style="edgeStyle=orthogonalEdgeStyle;rounded=0;orthogonalLoop=1;jettySize=auto;html=1;" parent="1" source="loUv_t9oCYbhFRwzyhbo-110" edge="1">
          <mxGeometry relative="1" as="geometry">
            <mxPoint x="750" y="780.0000000000002" as="targetPoint" />
          </mxGeometry>
        </mxCell>
        <mxCell id="loUv_t9oCYbhFRwzyhbo-78" value="write &quot;Errore&quot;" style="shape=parallelogram;perimeter=parallelogramPerimeter;whiteSpace=wrap;html=1;fixedSize=1;" parent="1" vertex="1">
          <mxGeometry x="690" y="670" width="120" height="60" as="geometry" />
        </mxCell>
        <mxCell id="loUv_t9oCYbhFRwzyhbo-79" value="end" style="ellipse;whiteSpace=wrap;html=1;" parent="1" vertex="1">
          <mxGeometry x="810" y="810" width="80" height="80" as="geometry" />
        </mxCell>
        <mxCell id="loUv_t9oCYbhFRwzyhbo-91" value="" style="edgeStyle=orthogonalEdgeStyle;rounded=0;orthogonalLoop=1;jettySize=auto;html=1;" parent="1" source="loUv_t9oCYbhFRwzyhbo-86" target="loUv_t9oCYbhFRwzyhbo-90" edge="1">
          <mxGeometry relative="1" as="geometry" />
        </mxCell>
        <mxCell id="loUv_t9oCYbhFRwzyhbo-86" value="" style="shape=waypoint;sketch=0;size=6;pointerEvents=1;points=[];fillColor=none;resizable=0;rotatable=0;perimeter=centerPerimeter;snapToPoint=1;" parent="1" vertex="1">
          <mxGeometry x="90" y="1110" width="20" height="20" as="geometry" />
        </mxCell>
        <mxCell id="loUv_t9oCYbhFRwzyhbo-87" style="edgeStyle=orthogonalEdgeStyle;rounded=0;orthogonalLoop=1;jettySize=auto;html=1;entryX=0.808;entryY=0.881;entryDx=0;entryDy=0;entryPerimeter=0;" parent="1" source="loUv_t9oCYbhFRwzyhbo-63" target="loUv_t9oCYbhFRwzyhbo-86" edge="1">
          <mxGeometry relative="1" as="geometry">
            <Array as="points">
              <mxPoint x="240" y="1120" />
            </Array>
          </mxGeometry>
        </mxCell>
        <mxCell id="loUv_t9oCYbhFRwzyhbo-88" value="" style="shape=waypoint;sketch=0;size=6;pointerEvents=1;points=[];fillColor=default;resizable=0;rotatable=0;perimeter=centerPerimeter;snapToPoint=1;" parent="1" vertex="1">
          <mxGeometry x="490" y="1150" width="20" height="20" as="geometry" />
        </mxCell>
        <mxCell id="loUv_t9oCYbhFRwzyhbo-93" value="" style="edgeStyle=orthogonalEdgeStyle;rounded=0;orthogonalLoop=1;jettySize=auto;html=1;" parent="1" source="loUv_t9oCYbhFRwzyhbo-90" target="loUv_t9oCYbhFRwzyhbo-92" edge="1">
          <mxGeometry relative="1" as="geometry" />
        </mxCell>
        <mxCell id="loUv_t9oCYbhFRwzyhbo-90" value="" style="shape=waypoint;sketch=0;size=6;pointerEvents=1;points=[];fillColor=none;resizable=0;rotatable=0;perimeter=centerPerimeter;snapToPoint=1;" parent="1" vertex="1">
          <mxGeometry x="90" y="1150" width="20" height="20" as="geometry" />
        </mxCell>
        <mxCell id="loUv_t9oCYbhFRwzyhbo-96" value="" style="edgeStyle=orthogonalEdgeStyle;rounded=0;orthogonalLoop=1;jettySize=auto;html=1;" parent="1" source="loUv_t9oCYbhFRwzyhbo-92" target="loUv_t9oCYbhFRwzyhbo-95" edge="1">
          <mxGeometry relative="1" as="geometry" />
        </mxCell>
        <mxCell id="loUv_t9oCYbhFRwzyhbo-92" value="" style="shape=waypoint;sketch=0;size=6;pointerEvents=1;points=[];fillColor=none;resizable=0;rotatable=0;perimeter=centerPerimeter;snapToPoint=1;" parent="1" vertex="1">
          <mxGeometry x="290" y="1149" width="20" height="20" as="geometry" />
        </mxCell>
        <mxCell id="loUv_t9oCYbhFRwzyhbo-94" style="edgeStyle=orthogonalEdgeStyle;rounded=0;orthogonalLoop=1;jettySize=auto;html=1;entryX=0.546;entryY=1.158;entryDx=0;entryDy=0;entryPerimeter=0;" parent="1" source="loUv_t9oCYbhFRwzyhbo-88" target="loUv_t9oCYbhFRwzyhbo-92" edge="1">
          <mxGeometry relative="1" as="geometry" />
        </mxCell>
        <mxCell id="loUv_t9oCYbhFRwzyhbo-100" value="" style="edgeStyle=orthogonalEdgeStyle;rounded=0;orthogonalLoop=1;jettySize=auto;html=1;" parent="1" source="loUv_t9oCYbhFRwzyhbo-95" target="loUv_t9oCYbhFRwzyhbo-99" edge="1">
          <mxGeometry relative="1" as="geometry" />
        </mxCell>
        <mxCell id="loUv_t9oCYbhFRwzyhbo-95" value="cont += 1" style="whiteSpace=wrap;html=1;fillColor=none;sketch=0;pointerEvents=1;resizable=0;" parent="1" vertex="1">
          <mxGeometry x="240" y="1190" width="120" height="60" as="geometry" />
        </mxCell>
        <mxCell id="loUv_t9oCYbhFRwzyhbo-102" value="" style="edgeStyle=orthogonalEdgeStyle;rounded=0;orthogonalLoop=1;jettySize=auto;html=1;" parent="1" source="loUv_t9oCYbhFRwzyhbo-99" target="loUv_t9oCYbhFRwzyhbo-101" edge="1">
          <mxGeometry relative="1" as="geometry" />
        </mxCell>
        <mxCell id="loUv_t9oCYbhFRwzyhbo-99" value="" style="shape=waypoint;sketch=0;size=6;pointerEvents=1;points=[];fillColor=none;resizable=0;rotatable=0;perimeter=centerPerimeter;snapToPoint=1;" parent="1" vertex="1">
          <mxGeometry x="290" y="1280" width="20" height="20" as="geometry" />
        </mxCell>
        <mxCell id="loUv_t9oCYbhFRwzyhbo-104" value="" style="edgeStyle=orthogonalEdgeStyle;rounded=0;orthogonalLoop=1;jettySize=auto;html=1;" parent="1" source="loUv_t9oCYbhFRwzyhbo-101" target="loUv_t9oCYbhFRwzyhbo-103" edge="1">
          <mxGeometry relative="1" as="geometry" />
        </mxCell>
        <mxCell id="loUv_t9oCYbhFRwzyhbo-101" value="" style="shape=waypoint;sketch=0;size=6;pointerEvents=1;points=[];fillColor=none;resizable=0;rotatable=0;perimeter=centerPerimeter;snapToPoint=1;" parent="1" vertex="1">
          <mxGeometry x="-220" y="1280" width="20" height="20" as="geometry" />
        </mxCell>
        <mxCell id="loUv_t9oCYbhFRwzyhbo-105" style="edgeStyle=orthogonalEdgeStyle;rounded=0;orthogonalLoop=1;jettySize=auto;html=1;" parent="1" source="loUv_t9oCYbhFRwzyhbo-103" target="loUv_t9oCYbhFRwzyhbo-7" edge="1">
          <mxGeometry relative="1" as="geometry" />
        </mxCell>
        <mxCell id="loUv_t9oCYbhFRwzyhbo-103" value="" style="shape=waypoint;sketch=0;size=6;pointerEvents=1;points=[];fillColor=none;resizable=0;rotatable=0;perimeter=centerPerimeter;snapToPoint=1;" parent="1" vertex="1">
          <mxGeometry x="-220" y="360" width="20" height="20" as="geometry" />
        </mxCell>
        <mxCell id="loUv_t9oCYbhFRwzyhbo-109" value="" style="edgeStyle=orthogonalEdgeStyle;rounded=0;orthogonalLoop=1;jettySize=auto;html=1;" parent="1" source="loUv_t9oCYbhFRwzyhbo-106" target="loUv_t9oCYbhFRwzyhbo-108" edge="1">
          <mxGeometry relative="1" as="geometry" />
        </mxCell>
        <mxCell id="loUv_t9oCYbhFRwzyhbo-106" value="write sum, prod" style="shape=parallelogram;perimeter=parallelogramPerimeter;whiteSpace=wrap;html=1;fixedSize=1;" parent="1" vertex="1">
          <mxGeometry x="880" y="445" width="120" height="70" as="geometry" />
        </mxCell>
        <mxCell id="loUv_t9oCYbhFRwzyhbo-113" value="" style="edgeStyle=orthogonalEdgeStyle;rounded=0;orthogonalLoop=1;jettySize=auto;html=1;" parent="1" source="loUv_t9oCYbhFRwzyhbo-108" target="loUv_t9oCYbhFRwzyhbo-112" edge="1">
          <mxGeometry relative="1" as="geometry" />
        </mxCell>
        <mxCell id="loUv_t9oCYbhFRwzyhbo-108" value="" style="shape=waypoint;sketch=0;size=6;pointerEvents=1;points=[];fillColor=default;resizable=0;rotatable=0;perimeter=centerPerimeter;snapToPoint=1;" parent="1" vertex="1">
          <mxGeometry x="930" y="769" width="20" height="20" as="geometry" />
        </mxCell>
        <mxCell id="loUv_t9oCYbhFRwzyhbo-111" value="" style="edgeStyle=orthogonalEdgeStyle;rounded=0;orthogonalLoop=1;jettySize=auto;html=1;" parent="1" source="loUv_t9oCYbhFRwzyhbo-78" target="loUv_t9oCYbhFRwzyhbo-110" edge="1">
          <mxGeometry relative="1" as="geometry">
            <mxPoint x="750" y="730" as="sourcePoint" />
            <mxPoint x="750" y="780.0000000000002" as="targetPoint" />
          </mxGeometry>
        </mxCell>
        <mxCell id="loUv_t9oCYbhFRwzyhbo-114" value="" style="edgeStyle=orthogonalEdgeStyle;rounded=0;orthogonalLoop=1;jettySize=auto;html=1;" parent="1" source="loUv_t9oCYbhFRwzyhbo-110" target="loUv_t9oCYbhFRwzyhbo-112" edge="1">
          <mxGeometry relative="1" as="geometry" />
        </mxCell>
        <mxCell id="loUv_t9oCYbhFRwzyhbo-110" value="" style="shape=waypoint;sketch=0;size=6;pointerEvents=1;points=[];fillColor=none;resizable=0;rotatable=0;perimeter=centerPerimeter;snapToPoint=1;" parent="1" vertex="1">
          <mxGeometry x="740" y="770" width="20" height="20" as="geometry" />
        </mxCell>
        <mxCell id="loUv_t9oCYbhFRwzyhbo-115" value="" style="edgeStyle=orthogonalEdgeStyle;rounded=0;orthogonalLoop=1;jettySize=auto;html=1;" parent="1" source="loUv_t9oCYbhFRwzyhbo-112" target="loUv_t9oCYbhFRwzyhbo-79" edge="1">
          <mxGeometry relative="1" as="geometry" />
        </mxCell>
        <mxCell id="loUv_t9oCYbhFRwzyhbo-112" value="" style="shape=waypoint;sketch=0;size=6;pointerEvents=1;points=[];fillColor=none;resizable=0;rotatable=0;perimeter=centerPerimeter;snapToPoint=1;" parent="1" vertex="1">
          <mxGeometry x="840" y="770" width="20" height="20" as="geometry" />
        </mxCell>
        <mxCell id="loUv_t9oCYbhFRwzyhbo-122" value="true" style="text;html=1;align=center;verticalAlign=middle;resizable=0;points=[];autosize=1;strokeColor=none;fillColor=none;" parent="1" vertex="1">
          <mxGeometry x="440" y="410" width="40" height="30" as="geometry" />
        </mxCell>
        <mxCell id="loUv_t9oCYbhFRwzyhbo-128" value="" style="endArrow=classic;html=1;rounded=0;exitX=-0.005;exitY=-0.006;exitDx=0;exitDy=0;exitPerimeter=0;entryX=0.5;entryY=0;entryDx=0;entryDy=0;" parent="1" source="loUv_t9oCYbhFRwzyhbo-122" target="loUv_t9oCYbhFRwzyhbo-76" edge="1">
          <mxGeometry width="50" height="50" relative="1" as="geometry">
            <mxPoint x="430" y="420" as="sourcePoint" />
            <mxPoint x="590" y="460" as="targetPoint" />
          </mxGeometry>
        </mxCell>
        <mxCell id="loUv_t9oCYbhFRwzyhbo-132" value="" style="edgeStyle=orthogonalEdgeStyle;rounded=0;orthogonalLoop=1;jettySize=auto;html=1;" parent="1" source="loUv_t9oCYbhFRwzyhbo-130" target="loUv_t9oCYbhFRwzyhbo-35" edge="1">
          <mxGeometry relative="1" as="geometry" />
        </mxCell>
        <mxCell id="loUv_t9oCYbhFRwzyhbo-130" value="" style="shape=waypoint;sketch=0;size=6;pointerEvents=1;points=[];fillColor=default;resizable=0;rotatable=0;perimeter=centerPerimeter;snapToPoint=1;" parent="1" vertex="1">
          <mxGeometry x="240" y="480" width="20" height="20" as="geometry" />
        </mxCell>
      </root>
    </mxGraphModel>
  </diagram>
</mxfile>
